<?xml version="1.0" encoding="UTF-8"?>
<svg id="Layer_2" data-name="Layer 2" xmlns="http://www.w3.org/2000/svg" viewBox="0 0 572.19 215.77">
  <g id="Layer_1-2" data-name="Layer 1">
    <g>
      <path d="M334.87,134.34c-.48-5.48,2.95-7.7,5-11.92l4.94-10.15,3.26-5.86c.96-1.73-1.59-2.93-2.14-3.96-2.09-3.91-7.04-9.76-10.6-12.65-.8-.65-1.15-2.49-2.02-2.83-2.85-1.13-7.87,2.39-10.99,3.93l-7.37,3.66c-3.44,1.71-6.52,3.54-9.85,5.37l-6.26,3.44-13.89,7.33c-3.08,1.63-6.57.56-9.67,1.82l-13.88,5.64c-2.03.82-3.99,2.04-6.02,2.94l-12.2,5.44c-3.74,1.67-6.74,4.23-10.57,5.78l-6.17,3.86c1.01,1.91,2.89,2.04,4.74,2.72l13.45,4.92,10.38,3.45,4.66,2.01,15.14,7.69,2.71,3.37c.77.96.91,3.98.21,5.1-1.24,2.01-2.74,4.21-4.68,5.54-1.47,1.01-5.48,1.03-7.05.2l-17.04-8.94-12.01-3.91c-5.01-1.63-9.64-3.66-14.73-5.06-1.43-2.5-4.71-3.58-6.87-1.7-1.33,5.32-.74,10.58-1.32,15.86l-.61,5.53-.85,10.4-1.62,9.11c-1.44,8.11-.84,15.62-2.88,22.18-4.54,1.49-8.89,1.94-9.73-1.61-.21-.91,0-2.03-.7-2.79-.54-.58-1.44-.95-3.22-1.36,2.25-3.8,2.46-7.91,3.32-12.09.89-4.36.69-8.33,1.36-12.7l.91-5.88c.25-1.59.69-3.38.52-5.01-.11-1.07,2.22-2.41.56-4.44-.43-.53.07-2.08.35-3.21-1.2.11-1.12,1.04-1.24,1.49-.64-.62-.38-1.7-.14-1.99.32-.38.95-.64,2.39-.85-1.45-2.08.09-4.24-.06-6.29-.18-2.48-.28-5.07.53-7.12-2.1-1.93-5.89-.51-7.49,1.25-1.91,2.08-4.3,2.19-6.44,3.35-3.31,1.79-6.41,3.13-9.77,4.86l-9.17,4.72c-2.53,1.3-4.84,1.89-7.2,3.14l-9.58,5.05-6.08,2.89c-6.23,2.97-12.15,5.57-18.46,8.34l-13.09,5.75-8.05,4.02c-5.61,2.8-10.54,5.78-16.5,7.8-5.93,2.01-9.24,6.32-17.98-.43-1.68-1.29-2.72-2.07-3.85-3.99-2.85-4.82-6.6-11.81-5.52-16.68l-.89-4.23c.42-1.69-.28-3.62-.29-5.36-.01-4.42-.08-8.4-.86-12.73-.44-2.49.02-4.9-.09-7.29-.15-3.01-1.32-5.96-.8-9.05,1-5.93.13-11.12-.11-17.06l-.44-10.82c-.09-2.25.3-3.91-.08-6.33-.22-1.4-.55-3.85-.43-5.16.29-3.42.27-6.33.29-9.85l.07-9.72c.01-1.39-.75-2.44-2.25-2.46l-18.11-.19-17.62.65c-5.46.2-10.8,1.39-16.27.45-2.75-.48-4.5-3.43-5.91-5.43.52-.5.8-.91.82-1.21.02-.29-.53-.82-.68-1.21-.61-1.62.97-2.46,1.76-3.7l1.85-2.92c3.03-.14,5.69-1.43,8.58-2.07,6.06-1.36,12.14-.91,18.38-1.28,6.99-.42,13.64.19,20.59.19h9.34s.53-8.61.53-8.61c.19-3.05-.66-5.09-.17-8.15.33-2.06-.09-4.8-.34-7.11l-.86-8.11c-.21-2,.62-4.5.25-6.48l-1.21-6.41c-.99-5.24-2.55-12.49-.75-15.98,3.24-.06,3.33-3.4,6.61-3.25,1.9.09,4.49,3.81,4.55,7.86l2.24,7.78,2.47,15.71v7.45c.01,5.34.83,10.21.71,15.56-.07,3.01-.44,5.81.24,9.26l12.82-.58,33.62-2.31c2.24-.15,4.62-1.84,6.79-1.37,6.55,1.42,14.37-3.8,24.37,2.15l2.34,2.35c-.38,1.05-1.1,1.59-1.85,2.37,2.06,2.42.93,4.54-.88,6.25-5.39,5.12-13.21,4.08-20.75,3.84l-7.15.73c-2.72-.47-4.36.31-6.71.76-11.81,2.28-23.75,2.33-35.85,2.39l-7.55.61.18,32.15c0,1.69.35,3.15.37,4.81l.35,25.24.76,14.37.64,9.01c.35,4.93.81,9.06,1.4,14.01.4,3.37.69,9.04,5.16,9.46,2.15-.57,5.86-1.93,7.96-3.16l5.98-3.49c3.95-.96,9.71-4.9,14.83-7.75l5.46-3.05,10.25-4.96c6.45-3.12,12.7-5.98,19.3-8.78,3.71-1.57,7.02-3.74,10.75-5.54l12.53-6.06c3.92-.82,7.06-1.24,10.84-3.28l7.9-4.25c1.47-.79,2.23-1.84,3.78-2.83-2.35-.43-3.42-.32-5.05-1.17l-3.58-.6c-5.27-2.05-10.49-3.81-16.17-4.59l-15.35-2.11c-2.72-.37-5.23-.45-7.64,1.23-2.01-1.99-4.02-1.53-4.73-2.82-1.26-2.29,1.69-2.36,1.13-4.15-.17-.56-1.84-.91-2.39-1.22.73-.89.69-2.54,1.23-3.47.76-1.3,2.96-1.76,3.58-3.23,10.38.87,21.08,1.41,31.07,4.36,4.61,1.36,8.63,2.69,13.31,3.32s8.71,2.2,13.39,2.19l5.26.78c-.02-6.43-.34-12.86-2.1-18.67,2.18-2.02-.07-6.84.16-9.88.19-2.62.11-4.71-.05-7.35l-.65-10.92-.58-9.67c-.18-2.95-.43-5.42-.99-8.25-.81-4.13.09-8.35.32-12.68l7.52-1.31,7.04,1.18.02,7.8c0,1.75,1.25,4.13.71,5.68-.45,1.31.34,2.17.27,3.46-.19,3.2-.3,6.17-.07,9.3l.96,13.05,1,10.23c.77,7.93.72,22.14,3.4,22.92,1.74.51,3.94-1.5,5.34-2.34,6.33-3.78,12.8-6.48,19.43-9.7,7.39-3.59,22.01-10.86,27.45-11.57,1.68-.22,3.76,1.24,5.67-.17,4.35-3.22,9.21-5.48,14.11-7.7l7.92-3.59c5.71-3.35,11.19-6.43,17.2-8.99l16.16-6.88,7.73-3.1c3.35-1.34,6.2-2.62,9.46-3.94,3.53-1.43,6.46-3.44,10.42-4.14l6.6-3.01c4.81-1.28,9.09-3.16,13.52-5.31,2.81-1.36,8.72,1.8,9.14,2.63.54,1.06.62,2.5.22,3.81.63,2.66-.03,5.24-2.71,6.14l-7.85,11.77-3.43,5.59c-1.2,1.96-2.81,3.58-4.26,5.42l-7.42,9.49-6.2,11.5-4.58,9.22-6.42,12.41-3.61,8.65c-.71,1.71-3.24,2.91-5.1,3.05-5.53.44-2.67-10.02-7.52-5.06ZM358.86,89.07l1.87-3.35,2.8-3.92c2.05-2.86,4.73-5.23,6.22-9.14-3.41-.6-6.44,1-9.35,2.35l-13.58,6.26,3.82,4.17c1.46,1.59,2.88,2.62,3.76,4.71.48,1.15,2.01,1.64,2.93,1.41,1.13-.28,1.04-1.62,1.53-2.5Z"/>
      <path d="M397.86,121.53l-6.29,12.34c-1.12,2.2-2.3,4.38-3.5,6.73l-6.07,11.94-4.5,10.12c-1.61,3.61-5.52,5.82-9.6,4.58-1.56-.48-1.42-3.55-1.73-5.02-2.55-2.48-1.71-5.6.02-8.52l4.08-11.6c.59-1.68,1.99-2.34,3.41-2.76,1.58-3.73,4.05-6.88,5.86-10.49l2.21-4.4c1.32-2.63,1.2-6.12,3.18-8.38,2.1-2.38,3.58-4.64,4.72-7.64,1.32-3.47,3.8-6.67,4.46-10.61,0-.51-1.55-1.07-2.1-1.03-.16-3.08,3.33-3.22,1.02-5.53-1.06-1.07,2.53-4.78,3.21-5.76l2.76-3.97,1.5-2.32c.61-.95,2.21-.49,3.33-.22,1.33-1.53,4.22-1.16,5.76-1.82,6.69-2.86,12.99-2.83,19.43.37,2.14,1.06,4.56,1.09,5.9,3.84l3.99,4.71c4.82,12.13,1.69,29.16-8.56,35.25-1.37.81-2.51,1.23-3.83,2.42s-4.55,1.14-5.64,2.68c-1.03,1.46.7,2.59,1.06,3.47,2,4.87,4.7,8.92,7.18,13.42l4.11,7.43,3.94,5.86,2.31,3.71c1.33,2.14.43,5.37-.31,7.44s-2.4,1.72-3.82,2.32c-3.8,1.63-7.54,1.39-9.8-2.58-1.2-2.1-2.03-5.07-3.79-6.93-1.68-1.77-2.31-3.51-3.43-5.7l-6.12-11.94c-1.16-2.26-1.55-4.19-2.68-6.51l-5.57-11.43c-.66-1.36-1.97-2.09-2.28-3.8-.15-.86-1.28-1.35-1.89-1.32-1,.05-1.38.58-1.94,1.67ZM421.33,108.99l3.45-4.73c1.06-1.45.7-3.83,1.21-5.42,1.26-3.92-1.83-10.96-5.87-10.37-3.77.55-7.22,2.67-10.49,4.45-1.55,5.26-3.09,9.92-5.44,14.79-.48,1,.34,2.24,1.4,2.38,3.96.53,5.95,4.5,10.68,3.27,2.02-.53,3.48-2.22,5.06-4.38Z"/>
      <path d="M475.03,162.19c-3.15-.9-4.23-2.76-4.27-5.95-.04-3.21-1.74-7.35.39-10.43,1.21-1.74,2.54-3.3,1.46-5.73l-1.27-7.35-3.33-15.98-1.22-4.83-3.29-11.04-3.21-11c-4.71-.97-10.67,1.16-11.48-1.74-.71-2.53-2-4.35-4.97-4.27,4.63-8.65,10.23-8.36,12.27-9.4l14.04-7.18,11-5.48,6.49-3.75,8.64-4.19c1.63-.79,4.36-.54,5.67-2.11,1.52-1.83,3.24-1.9,5.27-2.75,3.1-1.29,6.95-2.34,9.51.66.3,2.25,2.53,3.52,2.67,6.78-2.32.93-2.28,4.06-3.16,5.76-2.7.64-5.08,2.52-7.28,3.42-4.06,1.65-7.46,3.14-11.05,5.51l-5.84,2.73-18.21,9.58,4.55,14.28,5.1,18.41,2.52,13.35,2.09,11.63c.53,2.92.05,6.23,2.22,8.63-2.51,2.59.51,5.99-3.48,6.97-1.47.36-2.23,2.16-2.65,3.45-.8,2.48-2.13,3.14-4.7,3.65l-2.33.47-2.16-2.09Z"/>
      <g>
        <path d="M532.99,50.26l1.79-1.41c.32-.25.14-1.21-.25-1.8.07-.46,0-.69-.09-.9-.18-.41-.72-.71-1.09-.27-.49.59.04,3.57-.82,2.59-.43-.49,0-1.6-.03-3.36,0-.35.63-.4,1.09-.46-.26-1.19-.19-2.75-.78-3.59-1.1-1.58-1-2.68-1.51-4.47l-1.85-6.53c-1.3.47-1.09,1.21-1.01,2.34l-2.53-4.93c-.1-.2.44-1.07.59-1.18,1.17-.84.31.96.83,2.71.2.68,1.7.37,1.56-.27-.36-1.55-.54-2.46-.27-4,.18-1.03,1.38-1.71,2.33-2.35l-.15-1.19c-.03-.25.42-.42.64-.38.5.11.85.31,1.36,1.15,9.18-3.68,11.96,15.98,14.57,27.26l3.07,13.29c.52,2.26,1.42,3.91,1.83,6.12l2.06,11.29,2.13,10.13c.48,2.26,1.98,3.23,1.5,5.92-.22,1.23.44,2.86-.55,4.23-.77,1.07-1.96,1.46-3.52,2.16-5.66,2.55-5.91-3.2-10.19-5.62l-3.73-15-6.98-31.52Z"/>
        <path d="M552.17,144.98l-5.89-6.04c2.76-2.16-.29-4.43.54-10.88.26-2.07,2.84-4.01,3.83-5.64,1.62-2.66,4.18-2.15,6.3-2.89,3.57-1.24,5.82-1.37,9.06.53,1.99,1.17,4.35,1.71,5.04,4.66.85,3.65,1.79,8.02.54,11.71-1,2.95-2.67,6.88-5.6,7.66l-9.95,2.63-3.86-1.75Z"/>
      </g>
    </g>
  </g>
</svg>