<?xml version="1.0" encoding="UTF-8"?>
<svg id="Layer_2" data-name="Layer 2" xmlns="http://www.w3.org/2000/svg" viewBox="0 0 862.72 762.9">
  <defs>
    <style>
      .cls-1 {
        fill: #231f20;
      }
    </style>
  </defs>
  <g id="Layer_1-2" data-name="Layer 1">
    <g id="uuid-6b97b96f-6970-49d0-b622-42b9c48aabf9" data-name="Layer 1-2">
      <path class="cls-1" d="M75.55,459.18c-41.33,0-75.55-34.22-75.55-77.01s34.22-75.55,75.55-75.55,77.01,34.22,77.01,75.55-34.22,77.01-77.01,77.01ZM253.83,152.56c-42.78,0-77.01-34.22-77.01-75.55S211.05,0,253.83,0s75.55,34.22,75.55,77.01-34.22,75.55-75.55,75.55ZM253.83,762.9c-42.78,0-77.01-34.22-77.01-75.55s34.22-77.01,77.01-77.01,75.55,34.22,75.55,77.01-34.22,75.55-75.55,75.55ZM430.66,459.18c-41.33,0-75.55-34.22-75.55-77.01s34.22-75.55,75.55-75.55,77.01,34.22,77.01,75.55-34.22,77.01-77.01,77.01ZM608.89,152.56c-42.78,0-77.01-34.22-77.01-75.55S566.11,0,608.89,0s75.55,34.22,75.55,77.01-34.22,75.55-75.55,75.55ZM608.89,762.9c-42.78,0-77.01-34.22-77.01-75.55s34.22-77.01,77.01-77.01,75.55,34.22,75.55,77.01-34.22,75.55-75.55,75.55ZM785.71,459.18c-41.38,0-75.55-34.22-75.55-77.01s34.22-75.55,75.55-75.55,77.01,34.22,77.01,75.55-34.22,77.01-77.01,77.01Z"/>
    </g>
  </g>
</svg>