<?xml version="1.0" encoding="UTF-8"?>
<svg id="Layer_2" data-name="Layer 2" xmlns="http://www.w3.org/2000/svg" viewBox="0 0 912.19 905.61">
  <defs>
    <style>
      .cls-1 {
        fill: #231f20;
      }
    </style>
  </defs>
  <g id="Layer_1-2" data-name="Layer 1">
    <path class="cls-1" d="M217.34,563.12c-74.66-54.85-144.9-82.33-210.76-82.33l-6.58-42.82c81.19-10.96,155.86-40.6,223.94-88.91-15.39-89.99-52.7-156.94-111.97-200.88l26.34-32.93c54.85,48.31,129.52,76.87,223.94,85.62,32.93-50.48,49.4-102.08,49.4-154.78,0-19.76-1.14-34-3.29-42.8l39.51-3.29c6.59,61.49,35.1,126.27,85.62,194.29,92.21-13.16,169.03-49.4,230.52-108.67l13.17,26.34c-46.11,63.71-72.44,143.82-79.04,240.4,63.65,43.94,135.03,67,214.05,69.15l-6.58,29.64c-59.28,4.43-122.98,31.85-191.01,82.33,19.77,70.29,52.7,132.86,98.79,187.7l-32.93,29.64c-57.12-43.89-122.98-71.32-197.59-82.33-48.31,68.08-76.87,147.11-85.62,237.11h-42.8c-8.8-81.2-42.82-155.87-102.1-223.94-81.25,13.17-143.82,41.73-187.7,85.62l-36.22-26.34c43.89-54.85,73.53-114.13,88.91-177.83Z"/>
  </g>
</svg>