<?xml version="1.0" encoding="UTF-8"?>
<svg id="Layer_2" data-name="Layer 2" xmlns="http://www.w3.org/2000/svg" viewBox="0 0 734.32 789.44">
  <defs>
    <style>
      .cls-1 {
        fill: #231f20;
      }
    </style>
  </defs>
  <g id="Layer_1-2" data-name="Layer 1">
    <path class="cls-1" d="M274.19,192.01c34.87,21.79,82.82,10.9,106.79-28.33,26.15-45.77,32.69-124.23,91.54-152.56,74.1-34.87,161.28,15.26,146.02,108.97-8.72,52.3-65.38,74.1-89.36,111.15-23.97,34.87-6.54,74.1,23.97,82.82,39.23,10.9,89.36-2.18,132.94,19.61,63.2,32.69,65.38,132.94,0,159.1-47.95,19.62-93.72-8.72-128.59-6.53-34.87,2.18-63.2,32.69-56.67,69.74,6.54,37.05,58.84,115.51,21.79,172.18-43.59,65.38-119.87,78.46-183.07,39.23-52.31-32.69-30.51-117.69-32.69-159.1-2.18-43.59-50.13-61.03-82.82-45.77-39.23,17.44-69.74,74.1-128.59,71.92-67.56-2.18-115.51-63.2-87.18-137.3,23.97-65.38,95.89-63.21,132.94-89.36,32.69-23.97,32.69-65.38,6.54-89.35-28.33-23.98-95.89-32.69-108.97-91.54-17.44-74.1,32.69-137.3,108.97-130.77,67.56,6.54,89.36,74.1,126.41,95.89Z"/>
  </g>
</svg>