<?xml version="1.0" encoding="UTF-8"?>
<svg id="Layer_2" data-name="Layer 2" xmlns="http://www.w3.org/2000/svg" viewBox="0 0 718.39 891.73">
  <defs>
    <style>
      .cls-1 {
        fill: #231f20;
      }
    </style>
  </defs>
  <g id="Layer_1-2" data-name="Layer 1">
    <g id="uuid-48e5f9ad-e289-4d41-94ae-65da61c49753" data-name="Layer 1-2">
      <path class="cls-1" d="M718.39,289.63l-193.86,209.8,173.34,374.04-43.3,18.26-161.92-353.52-43.3,45.63,129.97,275.95-41.04,18.26-123.13-257.68-20.52,22.78-34.2-29.62,34.2-38.79-20.52-45.63-214.38,241.74-34.2-31.95,223.48-253.17-27.36-31.95-29.62,31.95,18.26,20.52-31.95,31.95-15.94-18.26-175.6,205.28-34.2-29.62,177.85-207.54L0,241.74l31.95-31.95,228.06,244,29.62-34.2L77.57,177.85l34.2-29.62,209.8,234.9V47.88h45.63v355.78h-27.36l41.04,45.63,54.72-61.56V0h45.63v335.25l111.77-125.46,34.2,31.95-145.98,164.17,22.78,47.88,180.18-196.12s34.2,31.95,34.2,31.95ZM426.44,540.47l43.3-47.88-20.52-47.88-43.3,47.88s20.52,47.88,20.52,47.88Z"/>
    </g>
  </g>
</svg>