<?xml version="1.0" encoding="UTF-8"?>
<svg id="Layer_2" data-name="Layer 2" xmlns="http://www.w3.org/2000/svg" viewBox="0 0 841.54 963.15">
  <defs>
    <style>
      .cls-1 {
        fill: #231f20;
      }
    </style>
  </defs>
  <g id="Layer_1-2" data-name="Layer 1">
    <g id="uuid-3e19be60-fd2a-4135-ac5b-9a630a7c9b74" data-name="Layer 1-2">
      <path class="cls-1" d="M533.6,678.49v171.87c0,55.49-46.55,112.8-112.8,112.8-60.9,0-111.03-53.72-111.03-112.8v-171.87l-132.49,80.59c-8.93,5.35-28.63,17.93-57.31,17.93h-8.93c-64.48,0-111.03-53.72-111.03-114.56,0-28.63,8.93-66.24,53.72-93.11l148.59-87.76-150.42-91.28C33.97,375.95,0,350.91,0,299.01,0,241.7,44.79,186.21,118.15,186.21h30.45l161.11,96.69V112.8c0-59.07,44.79-112.8,111.03-112.8s112.8,53.72,112.8,112.8v170.11l145.01-87.76s23.28-10.76,44.79-10.76h5.35c59.07,0,111.03,51.9,111.03,114.56,0,26.86-7.17,66.24-51.9,93.11l-148.59,89.52,150.42,89.52c16.11,12.52,51.9,39.38,51.9,89.52,0,69.83-53.72,118.15-112.8,118.15-16.11,0-37.62-5.35-62.66-19.69,0,0-132.49-80.59-132.49-80.59Z"/>
    </g>
  </g>
</svg>